<?xml version="1.0" encoding="UTF-8" standalone="no"?>
<!-- Uploaded to: SVG Repo, www.svgrepo.com, Transformed by: SVG Repo Mixer Tools -->

<svg
   width="800px"
   height="800px"
   viewBox="0 0 1024 1024"
   fill="#001f7b"
   version="1.1"
   id="svg1"
   sodipodi:docname="gitlab-svgrepo-com-3.svg"
   inkscape:version="1.3 (0e150ed, 2023-07-21)"
   xmlns:inkscape="http://www.inkscape.org/namespaces/inkscape"
   xmlns:sodipodi="http://sodipodi.sourceforge.net/DTD/sodipodi-0.dtd"
   xmlns="http://www.w3.org/2000/svg"
   xmlns:svg="http://www.w3.org/2000/svg">
  <defs
     id="defs1">
    <inkscape:path-effect
       effect="powerclip"
       id="path-effect2"
       is_visible="true"
       lpeversion="1"
       inverse="true"
       flatten="false"
       hide_clip="false"
       message="Використовувати почергове правило заповнення на панелі &lt;b&gt;Заповнення та штрих&lt;/b&gt;, якщо немає спрощення результату після перетворення обрізання на контури." />
    <filter
       id="mask-powermask-path-effect2_inverse"
       inkscape:label="filtermask-powermask-path-effect2"
       style="color-interpolation-filters:sRGB"
       height="100"
       width="100"
       x="-50"
       y="-50">
      <feColorMatrix
         id="mask-powermask-path-effect2_primitive1"
         values="1"
         type="saturate"
         result="fbSourceGraphic" />
      <feColorMatrix
         id="mask-powermask-path-effect2_primitive2"
         values="-1 0 0 0 1 0 -1 0 0 1 0 0 -1 0 1 0 0 0 1 0 "
         in="fbSourceGraphic" />
    </filter>
    <clipPath
       clipPathUnits="userSpaceOnUse"
       id="clipPath2">
      <path
         d="m 766.69999,552.8 -28.6,-88.2 -56.8,-174.6 c -2.89999,-9 -15.6,-9 -18.49999,0 L 606,464.6 H 417.6 L 360.8,290.10001 c -2.90001,-9 -15.6,-9 -18.50001,-0.1 l -56.8,174.6 -28.6,88.2 c -2.6,8 0.30001,16.8 7.10001,21.8 l 247.8,180 247.8,-180 c 6.89999,-4.9 9.69999,-13.70001 7.09999,-21.8"
         style="display:none;fill:#ffffff;fill-opacity:1;stroke-width:1"
         id="path2" />
      <path
         id="lpe_path-effect2"
         style="fill:#ffffff;fill-opacity:1;stroke-width:1"
         class="powerclip"
         d="M -5,-5 H 1029 V 1029 H -5 Z m 771.69999,557.8 -28.6,-88.2 -56.8,-174.6 c -2.89999,-9 -15.6,-9 -18.49999,0 L 606,464.6 H 417.6 L 360.8,290.10001 c -2.90001,-9 -15.6,-9 -18.50001,-0.1 l -56.8,174.6 -28.6,88.2 c -2.6,8 0.30001,16.8 7.10001,21.8 l 247.8,180 247.8,-180 c 6.89999,-4.9 9.69999,-13.70001 7.09999,-21.8" />
    </clipPath>
  </defs>
  <sodipodi:namedview
     id="namedview1"
     pagecolor="#ffffff"
     bordercolor="#000000"
     borderopacity="0.25"
     inkscape:showpageshadow="2"
     inkscape:pageopacity="0.0"
     inkscape:pagecheckerboard="0"
     inkscape:deskcolor="#d1d1d1"
     inkscape:zoom="0.295"
     inkscape:cx="398.30508"
     inkscape:cy="400"
     inkscape:window-width="1664"
     inkscape:window-height="449"
     inkscape:window-x="0"
     inkscape:window-y="25"
     inkscape:window-maximized="0"
     inkscape:current-layer="SVGRepo_iconCarrier" />
  <g
     id="SVGRepo_bgCarrier"
     stroke-width="0" />
  <g
     id="SVGRepo_tracerCarrier"
     stroke-linecap="round"
     stroke-linejoin="round" />
  <g
     id="SVGRepo_iconCarrier">
    <path
       id="circle1"
       clip-path="url(#clipPath2)"
       inkscape:path-effect="#path-effect2"
       sodipodi:type="arc"
       sodipodi:cx="512"
       sodipodi:cy="512"
       sodipodi:rx="512"
       sodipodi:ry="512"
       d="M 1024,512 A 512,512 0 0 1 512,1024 512,512 0 0 1 0,512 512,512 0 0 1 512,0 512,512 0 0 1 1024,512 Z" />
  </g>
</svg>
